<svg width="25" height="21" viewBox="0 0 25 21" fill="none" xmlns="http://www.w3.org/2000/svg">
<path fill-rule="evenodd" clip-rule="evenodd" d="M2.5 6.5C1.94772 6.5 1.5 6.94772 1.5 7.5C1.5 8.05228 1.94772 8.5 2.5 8.5C3.05228 8.5 3.5 8.05228 3.5 7.5C3.5 6.94772 3.05228 6.5 2.5 6.5ZM0.5 7.5C0.5 6.39543 1.39543 5.5 2.5 5.5C3.60457 5.5 4.5 6.39543 4.5 7.5C4.5 8.60457 3.60457 9.5 2.5 9.5C1.39543 9.5 0.5 8.60457 0.5 7.5Z" fill="white"/>
<path fill-rule="evenodd" clip-rule="evenodd" d="M17.5 8.5C16.9477 8.5 16.5 8.94772 16.5 9.5C16.5 10.0523 16.9477 10.5 17.5 10.5C18.0523 10.5 18.5 10.0523 18.5 9.5C18.5 8.94772 18.0523 8.5 17.5 8.5ZM15.5 9.5C15.5 8.39543 16.3954 7.5 17.5 7.5C18.6046 7.5 19.5 8.39543 19.5 9.5C19.5 10.6046 18.6046 11.5 17.5 11.5C16.3954 11.5 15.5 10.6046 15.5 9.5Z" fill="white"/>
<path fill-rule="evenodd" clip-rule="evenodd" d="M22.5 3.5C21.9477 3.5 21.5 3.94772 21.5 4.5C21.5 5.05228 21.9477 5.5 22.5 5.5C23.0523 5.5 23.5 5.05228 23.5 4.5C23.5 3.94772 23.0523 3.5 22.5 3.5ZM20.5 4.5C20.5 3.39543 21.3954 2.5 22.5 2.5C23.6046 2.5 24.5 3.39543 24.5 4.5C24.5 5.60457 23.6046 6.5 22.5 6.5C21.3954 6.5 20.5 5.60457 20.5 4.5Z" fill="white"/>
<path fill-rule="evenodd" clip-rule="evenodd" d="M8.5 1.5C7.94772 1.5 7.5 1.94772 7.5 2.5C7.5 3.05228 7.94772 3.5 8.5 3.5C9.05228 3.5 9.5 3.05228 9.5 2.5C9.5 1.94772 9.05228 1.5 8.5 1.5ZM6.5 2.5C6.5 1.39543 7.39543 0.5 8.5 0.5C9.60457 0.5 10.5 1.39543 10.5 2.5C10.5 3.60457 9.60457 4.5 8.5 4.5C7.39543 4.5 6.5 3.60457 6.5 2.5Z" fill="white"/>
<path fill-rule="evenodd" clip-rule="evenodd" d="M3.64645 5.64646C3.45118 5.4512 3.45118 5.13462 3.64645 4.93935L6.47487 2.11093C6.67014 1.91566 6.98672 1.91566 7.18198 2.11093C7.37724 2.30619 7.37724 2.62277 7.18198 2.81803L4.35355 5.64646C4.15829 5.84172 3.84171 5.84172 3.64645 5.64646Z" fill="white"/>
<path fill-rule="evenodd" clip-rule="evenodd" d="M18.6464 9.64646C18.4512 9.4512 18.4512 9.13462 18.6464 8.93935L21.4749 6.11093C21.6701 5.91566 21.9867 5.91566 22.182 6.11093C22.3772 6.30619 22.3772 6.62277 22.182 6.81803L19.3536 9.64646C19.1583 9.84172 18.8417 9.84172 18.6464 9.64646Z" fill="white"/>
<path fill-rule="evenodd" clip-rule="evenodd" d="M10.3716 2.66551C10.5769 2.48078 10.893 2.49742 11.0778 2.70267L16.4295 8.64902C16.6142 8.85428 16.5976 9.17042 16.3923 9.35515C16.1871 9.53988 15.8709 9.52324 15.6862 9.31799L10.3345 3.37164C10.1497 3.16638 10.1664 2.85024 10.3716 2.66551Z" fill="white"/>
<path fill-rule="evenodd" clip-rule="evenodd" d="M2.5 14C2.77614 14 3 14.2239 3 14.5L3 20.5C3 20.7761 2.77614 21 2.5 21C2.22386 21 2 20.7761 2 20.5L2 14.5C2 14.2239 2.22386 14 2.5 14Z" fill="white"/>
<path fill-rule="evenodd" clip-rule="evenodd" d="M12.5 14C12.7761 14 13 14.2239 13 14.5L13 20.5C13 20.7761 12.7761 21 12.5 21C12.2239 21 12 20.7761 12 20.5L12 14.5C12 14.2239 12.2239 14 12.5 14Z" fill="white"/>
<path fill-rule="evenodd" clip-rule="evenodd" d="M22.5 14C22.7761 14 23 14.2239 23 14.5L23 20.5C23 20.7761 22.7761 21 22.5 21C22.2239 21 22 20.7761 22 20.5L22 14.5C22 14.2239 22.2239 14 22.5 14Z" fill="white"/>
<path fill-rule="evenodd" clip-rule="evenodd" d="M17.5 16C17.7761 16 18 16.2239 18 16.5L18 20.5C18 20.7761 17.7761 21 17.5 21C17.2239 21 17 20.7761 17 20.5L17 16.5C17 16.2239 17.2239 16 17.5 16Z" fill="white"/>
<path fill-rule="evenodd" clip-rule="evenodd" d="M7.5 10C7.77614 10 8 10.2239 8 10.5L8 20.5C8 20.7761 7.77614 21 7.5 21C7.22386 21 7 20.7761 7 20.5L7 10.5C7 10.2239 7.22386 10 7.5 10Z" fill="white"/>
</svg>
