<svg width="24" height="21" viewBox="0 0 24 21" fill="none" xmlns="http://www.w3.org/2000/svg">
<path fill-rule="evenodd" clip-rule="evenodd" d="M0.5 13.5C0.5 9.63401 3.63401 6.5 7.5 6.5H10.5C14.366 6.5 17.5 9.63401 17.5 13.5C17.5 17.366 14.366 20.5 10.5 20.5H7.5C3.63401 20.5 0.5 17.366 0.5 13.5ZM7.5 7.5C4.18629 7.5 1.5 10.1863 1.5 13.5C1.5 16.8137 4.18629 19.5 7.5 19.5H10.5C13.8137 19.5 16.5 16.8137 16.5 13.5C16.5 10.1863 13.8137 7.5 10.5 7.5H7.5Z" fill="white"/>
<path fill-rule="evenodd" clip-rule="evenodd" d="M6.5 7.5C6.5 3.63401 9.63401 0.5 13.5 0.5H16.5C20.366 0.5 23.5 3.63401 23.5 7.5C23.5 11.366 20.366 14.5 16.5 14.5H13.5C9.63401 14.5 6.5 11.366 6.5 7.5ZM13.5 1.5C10.1863 1.5 7.5 4.18629 7.5 7.5C7.5 10.8137 10.1863 13.5 13.5 13.5H16.5C19.8137 13.5 22.5 10.8137 22.5 7.5C22.5 4.18629 19.8137 1.5 16.5 1.5H13.5Z" fill="white"/>
</svg>
