<svg width="27" height="25" viewBox="0 0 27 25" fill="none" xmlns="http://www.w3.org/2000/svg">
<path fill-rule="evenodd" clip-rule="evenodd" d="M25.5046 19.7527V10.2692C25.5046 8.90207 24.8064 7.62959 23.6531 6.89524L15.6531 1.80098C14.3424 0.966324 12.6669 0.966323 11.3561 1.80098L3.35613 6.89524C2.20291 7.62959 1.50464 8.90207 1.50464 10.2692V19.7527C1.50464 21.9618 3.2955 23.7527 5.50464 23.7527H21.5046C23.7138 23.7527 25.5046 21.9618 25.5046 19.7527ZM2.81901 6.05174C1.37748 6.96967 0.504639 8.56027 0.504639 10.2692V19.7527C0.504639 22.5141 2.74322 24.7527 5.50464 24.7527H21.5046C24.2661 24.7527 26.5046 22.5141 26.5046 19.7527V10.2692C26.5046 8.56027 25.6318 6.96967 24.1903 6.05174L16.1903 0.95748C14.5518 -0.0858421 12.4574 -0.0858436 10.819 0.957479L2.81901 6.05174Z" fill="white"/>
<path fill-rule="evenodd" clip-rule="evenodd" d="M16 14H11L11 22H16V14ZM11 13C10.4477 13 10 13.4477 10 14V22C10 22.5523 10.4477 23 11 23H16C16.5523 23 17 22.5523 17 22V14C17 13.4477 16.5523 13 16 13H11Z" fill="white"/>
</svg>
