<svg width="26" height="24" viewBox="0 0 26 24" fill="none" xmlns="http://www.w3.org/2000/svg">
<path fill-rule="evenodd" clip-rule="evenodd" d="M16.5 1C21.1944 1 25 4.80558 25 9.5C25 13.3037 22.5008 16.5264 19.0524 17.6104C17.5009 18.0981 16.0946 19.036 15.0336 20.2534C13.7829 21.6885 12.0314 22.6718 10.0516 22.9316C10.5803 22.2149 11.0159 21.4248 11.3402 20.5789C11.8652 19.2096 10.7408 18 9.5 18C4.80558 18 1 14.1944 1 9.5C1 4.80558 4.80558 1 9.5 1H16.5ZM26 9.5C26 4.25329 21.7467 0 16.5 0L9.5 0C4.2533 0 0 4.25329 0 9.5C0 14.7467 4.25329 19 9.5 19C10.1542 19 10.6407 19.6101 10.4065 20.221C10.0021 21.2759 9.40477 22.2352 8.65779 23.056C8.33663 23.4089 8.52285 24 9 24C11.7085 24 14.1375 22.8036 15.7875 20.9104C16.7312 19.8276 17.982 18.9951 19.3523 18.5644C23.2053 17.3531 26 13.7529 26 9.5Z" fill="white"/>
<path fill-rule="evenodd" clip-rule="evenodd" d="M7 7.5C7 7.22386 7.22386 7 7.5 7H20.5C20.7761 7 21 7.22386 21 7.5C21 7.77614 20.7761 8 20.5 8H7.5C7.22386 8 7 7.77614 7 7.5Z" fill="white"/>
<path fill-rule="evenodd" clip-rule="evenodd" d="M7 11.5C7 11.2239 7.22386 11 7.5 11H20.5C20.7761 11 21 11.2239 21 11.5C21 11.7761 20.7761 12 20.5 12H7.5C7.22386 12 7 11.7761 7 11.5Z" fill="white"/>
</svg>
