<svg width="23" height="25" viewBox="0 0 23 25" fill="none" xmlns="http://www.w3.org/2000/svg">
<path fill-rule="evenodd" clip-rule="evenodd" d="M0.5 14C0.5 11.5147 2.51472 9.5 5 9.5H11C13.4853 9.5 15.5 11.5147 15.5 14V20C15.5 22.4853 13.4853 24.5 11 24.5H5C2.51472 24.5 0.5 22.4853 0.5 20V14ZM5 10.5C3.067 10.5 1.5 12.067 1.5 14V20C1.5 21.933 3.067 23.5 5 23.5H11C12.933 23.5 14.5 21.933 14.5 20V14C14.5 12.067 12.933 10.5 11 10.5H5Z" fill="white"/>
<path fill-rule="evenodd" clip-rule="evenodd" d="M18.7538 0.994988L21.9358 4.17697C22.131 4.37223 22.131 4.68881 21.9358 4.88407L18.7538 8.06606C18.5585 8.26132 18.2419 8.26132 18.0467 8.06606C17.8514 7.87079 17.8514 7.55421 18.0467 7.35895L20.3751 5.03052L13.4085 5.03052C10.9233 5.03052 8.90868 7.045 8.90847 9.53014L8.90796 15.6002L7.90796 15.6001L7.90847 9.53005C7.90873 6.49267 10.3711 4.03052 13.4085 4.03052L20.3751 4.03052L18.0467 1.70209C17.8514 1.50683 17.8514 1.19025 18.0467 0.994988C18.2419 0.799726 18.5585 0.799726 18.7538 0.994988Z" fill="white"/>
</svg>
