<svg width="26" height="12" viewBox="0 0 26 12" fill="none" xmlns="http://www.w3.org/2000/svg">
<path fill-rule="evenodd" clip-rule="evenodd" d="M14.5 6C14.5 2.96243 16.9624 0.5 20 0.5C23.0376 0.5 25.5 2.96243 25.5 6C25.5 9.03757 23.0376 11.5 20 11.5C16.9624 11.5 14.5 9.03757 14.5 6ZM20 1.5C17.5147 1.5 15.5 3.51472 15.5 6C15.5 8.48528 17.5147 10.5 20 10.5C22.4853 10.5 24.5 8.48528 24.5 6C24.5 3.51472 22.4853 1.5 20 1.5Z" fill="white"/>
<path fill-rule="evenodd" clip-rule="evenodd" d="M0.5 6C0.5 2.96243 2.96243 0.5 6 0.5C9.03757 0.5 11.5 2.96243 11.5 6C11.5 9.03757 9.03757 11.5 6 11.5C2.96243 11.5 0.5 9.03757 0.5 6ZM6 1.5C3.51472 1.5 1.5 3.51472 1.5 6C1.5 8.48528 3.51472 10.5 6 10.5C8.48528 10.5 10.5 8.48528 10.5 6C10.5 3.51472 8.48528 1.5 6 1.5Z" fill="white"/>
<path fill-rule="evenodd" clip-rule="evenodd" d="M15.0175 6.6369C15.0175 5.55688 14.1395 4.6832 13.0616 4.6832C11.9836 4.6832 11.1056 5.55688 11.1056 6.6369V8.0906C11.1056 8.36675 11.3294 8.5906 11.6056 8.5906C11.8817 8.5906 12.1056 8.36675 12.1056 8.0906V6.6369C12.1056 6.1112 12.5338 5.6832 13.0616 5.6832C13.5893 5.6832 14.0175 6.1112 14.0175 6.6369V8.0906C14.0175 8.36675 14.2414 8.5906 14.5175 8.5906C14.7937 8.5906 15.0175 8.36675 15.0175 8.0906V6.6369Z" fill="white"/>
</svg>
