<svg width="27" height="27" viewBox="0 0 27 27" fill="none" xmlns="http://www.w3.org/2000/svg">
<path fill-rule="evenodd" clip-rule="evenodd" d="M13.5 1.5C6.87258 1.5 1.5 6.87258 1.5 13.5C1.5 20.1274 6.87258 25.5 13.5 25.5C20.1274 25.5 25.5 20.1274 25.5 13.5C25.5 6.87258 20.1274 1.5 13.5 1.5ZM0.5 13.5C0.5 6.3203 6.3203 0.5 13.5 0.5C20.6797 0.5 26.5 6.3203 26.5 13.5C26.5 20.6797 20.6797 26.5 13.5 26.5C6.3203 26.5 0.5 20.6797 0.5 13.5Z" fill="#DCD5FF"/>
<path fill-rule="evenodd" clip-rule="evenodd" d="M8.39084 17.7393C5.55912 17.6231 4.56821 13.925 6.96245 12.4085C7.65966 11.9669 7.98977 11.1151 7.77522 10.3144C7.04867 7.60284 10.1797 5.4567 12.4188 7.20142L12.5686 7.31809C13.2223 7.82746 14.1255 7.87144 14.8256 7.42799L15.0498 7.286C17.4142 5.78836 20.3086 8.20522 19.2568 10.7989C18.9412 11.577 19.1805 12.47 19.8428 12.9861C22.0506 14.7063 20.7524 18.2466 17.9559 18.1318L17.6908 18.121C16.8627 18.087 16.1025 18.5767 15.7911 19.3447L15.7197 19.5206C14.6529 22.1511 10.8683 21.858 10.1418 19.1465C9.92722 18.3457 9.21545 17.7732 8.39084 17.7393ZM7.49754 13.2533C5.93148 14.2452 6.57963 16.6641 8.43184 16.7402C9.69714 16.7921 10.7809 17.668 11.1077 18.8876C11.5941 20.7031 14.0985 20.8573 14.7931 19.1447L14.8644 18.9688C15.3345 17.8096 16.4819 17.0705 17.7318 17.1218L17.9969 17.1327C19.8217 17.2076 20.6689 14.8974 19.2282 13.7749C18.2132 12.984 17.8465 11.6155 18.3301 10.4231C19.0165 8.73062 17.1278 7.15353 15.5849 8.1308L15.3607 8.27278C14.3039 8.94213 12.9407 8.87575 11.9539 8.1069L11.8042 7.99024C10.3465 6.85438 8.2547 8.24013 8.74115 10.0556C9.06796 11.2753 8.56736 12.5757 7.49754 13.2533Z" fill="#DCD5FF"/>
</svg>
